<svg xmlns="http://www.w3.org/2000/svg" xmlns:xlink="http://www.w3.org/1999/xlink" width="1600" zoomAndPan="magnify" viewBox="0 0 1200 675.000002" height="900" preserveAspectRatio="xMidYMid meet" version="1.0"><defs><clipPath id="id1"><path d="M 1 0 L 1199.113281 0 L 1199.113281 674 L 1 674 Z M 1 0 " clip-rule="nonzero"/></clipPath><clipPath id="id2"><path d="M 981 0 L 1199.113281 0 L 1199.113281 110 L 981 110 Z M 981 0 " clip-rule="nonzero"/></clipPath><clipPath id="id3"><path d="M 0.886719 0 L 213 0 L 213 110 L 0.886719 110 Z M 0.886719 0 " clip-rule="nonzero"/></clipPath><clipPath id="id4"><path d="M 1 0 L 1199.113281 0 L 1199.113281 92 L 1 92 Z M 1 0 " clip-rule="nonzero"/></clipPath><clipPath id="id5"><path d="M 1 479 L 1199.113281 479 L 1199.113281 674 L 1 674 Z M 1 479 " clip-rule="nonzero"/></clipPath><clipPath id="id6"><path d="M 981 461 L 1199.113281 461 L 1199.113281 674 L 981 674 Z M 981 461 " clip-rule="nonzero"/></clipPath><clipPath id="id7"><path d="M 981 0 L 1199.113281 0 L 1199.113281 110 L 981 110 Z M 981 0 " clip-rule="nonzero"/></clipPath><clipPath id="id8"><path d="M 0.886719 0 L 213 0 L 213 110 L 0.886719 110 Z M 0.886719 0 " clip-rule="nonzero"/></clipPath><clipPath id="id9"><path d="M 0.886719 461 L 213 461 L 213 674 L 0.886719 674 Z M 0.886719 461 " clip-rule="nonzero"/></clipPath><clipPath id="id10"><path d="M 596 478 L 598 478 L 598 674 L 596 674 Z M 596 478 " clip-rule="nonzero"/></clipPath><clipPath id="id11"><path d="M 709 461 L 788 461 L 788 674 L 709 674 Z M 709 461 " clip-rule="nonzero"/></clipPath><clipPath id="id12"><path d="M 836 461 L 990 461 L 990 674 L 836 674 Z M 836 461 " clip-rule="nonzero"/></clipPath><clipPath id="id13"><path d="M 402 463 L 481 463 L 481 674 L 402 674 Z M 402 463 " clip-rule="nonzero"/></clipPath><clipPath id="id14"><path d="M 200 463 L 354 463 L 354 674 L 200 674 Z M 200 463 " clip-rule="nonzero"/></clipPath><clipPath id="id15"><path d="M 0.886719 438 L 1199.113281 438 L 1199.113281 669 L 0.886719 669 Z M 0.886719 438 " clip-rule="nonzero"/></clipPath></defs><path fill="rgb(92.549133%, 97.24884%, 99.609375%)" d="M 30.605469 414.894531 L 162.167969 338.878906 L 162.167969 187.605469 L 32.007812 166.746094 Z M 41.257812 178.582031 L 157.445312 193.0625 L 157.445312 335.25 L 41.257812 397.21875 Z M 41.257812 178.582031 " fill-opacity="1" fill-rule="nonzero"/><g clip-path="url(#id1)"><path fill="rgb(98.81897%, 80.778503%, 72.549438%)" d="M 1.578125 -0.203125 L 1.578125 677.957031 L 1207.410156 677.957031 L 1207.410156 -0.203125 Z M 162.167969 338.878906 L 30.605469 414.894531 L 32.007812 166.746094 L 162.167969 187.605469 Z M 1031.148438 341.390625 L 1031.148438 190.117188 L 1161.308594 169.257812 L 1162.710938 417.40625 Z M 1031.148438 341.390625 " fill-opacity="1" fill-rule="nonzero"/></g><path fill="rgb(92.549133%, 97.24884%, 99.609375%)" d="M 1031.148438 190.117188 L 1031.148438 341.390625 L 1162.710938 417.40625 L 1161.308594 169.257812 Z M 1152.066406 399.738281 L 1035.878906 337.765625 L 1035.878906 195.574219 L 1152.066406 181.09375 Z M 1152.066406 399.738281 " fill-opacity="1" fill-rule="nonzero"/><g clip-path="url(#id2)"><path stroke-linecap="butt" transform="matrix(0.628036, 0, 0, 0.627928, 1.578412, -0.202827)" fill="none" stroke-linejoin="miter" d="M 1588.177605 146.830496 L 1920.003031 -0.000474098 " stroke="rgb(0%, 15.289307%, 24.708557%)" stroke-width="2" stroke-opacity="1" stroke-miterlimit="10"/></g><g clip-path="url(#id3)"><path stroke-linecap="butt" transform="matrix(0.628036, 0, 0, 0.627928, 1.578412, -0.202827)" fill="none" stroke-linejoin="miter" d="M 307.231946 146.830496 L -0.000457298 -0.000474098 " stroke="rgb(0%, 15.289307%, 24.708557%)" stroke-width="2" stroke-opacity="1" stroke-miterlimit="10"/></g><g clip-path="url(#id4)"><path fill="rgb(92.549133%, 97.24884%, 99.609375%)" d="M 999.011719 91.996094 L 194.53125 91.996094 L 1.578125 -0.203125 L 1207.410156 -0.203125 L 999.011719 91.996094 " fill-opacity="1" fill-rule="nonzero"/></g><path fill="rgb(98.81897%, 80.778503%, 72.549438%)" d="M 194.53125 91.996094 L 999.011719 91.996094 L 999.011719 479.332031 L 194.53125 479.332031 Z M 194.53125 91.996094 " fill-opacity="1" fill-rule="nonzero"/><g clip-path="url(#id5)"><path fill="rgb(76.078796%, 89.019775%, 96.859741%)" d="M 194.53125 479.332031 L 999.011719 479.332031 L 1207.410156 677.957031 L 1.578125 677.957031 L 194.53125 479.332031 " fill-opacity="1" fill-rule="nonzero"/></g><g clip-path="url(#id6)"><path stroke-linecap="butt" transform="matrix(0.628036, 0, 0, 0.627928, 1.578412, -0.202827)" fill="none" stroke-linejoin="miter" d="M 1588.177605 763.67858 L 1920.003031 1079.996894 " stroke="rgb(0%, 15.289307%, 24.708557%)" stroke-width="2" stroke-opacity="1" stroke-miterlimit="10"/></g><g clip-path="url(#id7)"><path stroke-linecap="butt" transform="matrix(0.628036, 0, 0, 0.627928, 1.578412, -0.202827)" fill="none" stroke-linejoin="miter" d="M 1588.177605 146.830496 L 1920.003031 -0.000474098 " stroke="rgb(0%, 15.289307%, 24.708557%)" stroke-width="2" stroke-opacity="1" stroke-miterlimit="10"/></g><g clip-path="url(#id8)"><path stroke-linecap="butt" transform="matrix(0.628036, 0, 0, 0.627928, 1.578412, -0.202827)" fill="none" stroke-linejoin="miter" d="M -0.000457298 -0.000474098 L 307.231946 146.830496 " stroke="rgb(0%, 15.289307%, 24.708557%)" stroke-width="2" stroke-opacity="1" stroke-miterlimit="10"/></g><g clip-path="url(#id9)"><path stroke-linecap="round" transform="matrix(0.628036, 0, 0, 0.627928, 1.578412, -0.202827)" fill="none" stroke-linejoin="miter" d="M -0.000457298 1079.996894 L 307.231946 763.67858 " stroke="rgb(0%, 15.289307%, 24.708557%)" stroke-width="2" stroke-opacity="1" stroke-miterlimit="10"/></g><g clip-path="url(#id10)"><path stroke-linecap="butt" transform="matrix(0.628036, 0, 0, 0.627928, 1.578412, -0.202827)" fill="none" stroke-linejoin="miter" d="M 947.707885 763.67858 L 947.707885 1079.996894 " stroke="rgb(92.549133%, 97.24884%, 99.609375%)" stroke-width="2" stroke-opacity="1" stroke-miterlimit="10"/></g><g clip-path="url(#id11)"><path stroke-linecap="butt" transform="matrix(0.628036, 0, 0, 0.627928, 1.578412, -0.202827)" fill="none" stroke-linejoin="miter" d="M 1155.971101 764.2509 L 1223.692099 1079.430796 " stroke="rgb(92.549133%, 97.24884%, 99.609375%)" stroke-width="2" stroke-opacity="1" stroke-miterlimit="10"/></g><g clip-path="url(#id12)"><path stroke-linecap="butt" transform="matrix(0.628036, 0, 0, 0.627928, 1.578412, -0.202827)" fill="none" stroke-linejoin="miter" d="M 1357.062907 764.2509 L 1544.608025 1079.430796 " stroke="rgb(92.549133%, 97.24884%, 99.609375%)" stroke-width="2" stroke-opacity="1" stroke-miterlimit="10"/></g><g clip-path="url(#id13)"><path stroke-linecap="butt" transform="matrix(0.628036, 0, 0, 0.627928, 1.578412, -0.202827)" fill="none" stroke-linejoin="miter" d="M 733.902843 767.087612 L 666.181845 1082.267509 " stroke="rgb(92.549133%, 97.24884%, 99.609375%)" stroke-width="2" stroke-opacity="1" stroke-miterlimit="10"/></g><g clip-path="url(#id14)"><path stroke-linecap="butt" transform="matrix(0.628036, 0, 0, 0.627928, 1.578412, -0.202827)" fill="none" stroke-linejoin="miter" d="M 532.811038 767.087612 L 345.24726 1082.267509 " stroke="rgb(92.549133%, 97.24884%, 99.609375%)" stroke-width="2" stroke-opacity="1" stroke-miterlimit="10"/></g><path stroke-linecap="butt" transform="matrix(0.628036, 0, 0, 0.627928, 1.578412, -0.202827)" fill="none" stroke-linejoin="miter" d="M 237.800508 835.162488 L 1663.169529 835.162488 " stroke="rgb(92.549133%, 97.24884%, 99.609375%)" stroke-width="2" stroke-opacity="1" stroke-miterlimit="10"/><path stroke-linecap="butt" transform="matrix(0.628036, 0, 0, 0.627928, 1.578412, -0.202827)" fill="none" stroke-linejoin="miter" d="M 120.271487 956.170666 L 1790.102862 956.170666 " stroke="rgb(92.549133%, 97.24884%, 99.609375%)" stroke-width="2" stroke-opacity="1" stroke-miterlimit="10"/><path stroke-linecap="butt" transform="matrix(0.628036, 0, 0, 0.627928, 1.578412, -0.202827)" fill="none" stroke-linejoin="miter" d="M 46.218751 661.059266 L 255.701044 540.001321 L 255.701044 299.092277 L 48.451653 265.872882 Z M 46.218751 661.059266 " stroke="rgb(0%, 15.289307%, 24.708557%)" stroke-width="2" stroke-opacity="1" stroke-miterlimit="10"/><path stroke-linecap="butt" transform="matrix(0.628036, 0, 0, 0.627928, 1.578412, -0.202827)" fill="none" stroke-linejoin="miter" d="M 48.451653 265.872882 L 40.421913 265.872882 L 36.957494 661.059266 L 46.218751 661.059266 " stroke="rgb(0%, 15.289307%, 24.708557%)" stroke-width="2" stroke-opacity="1" stroke-miterlimit="10"/><path stroke-linecap="butt" transform="matrix(0.628036, 0, 0, 0.627928, 1.578412, -0.202827)" fill="none" stroke-linejoin="miter" d="M 1652.626997 825.122019 L 1807.617771 972.867456 " stroke="rgb(0%, 15.289307%, 24.708557%)" stroke-width="2" stroke-opacity="1" stroke-miterlimit="10"/><path stroke-linecap="butt" transform="matrix(0.628036, 0, 0, 0.627928, 1.578412, -0.202827)" fill="none" stroke-linejoin="miter" d="M 1848.830053 665.059279 L 1639.34776 544.001334 L 1639.34776 303.092291 L 1846.597151 269.872896 Z M 1848.830053 665.059279 " stroke="rgb(0%, 15.289307%, 24.708557%)" stroke-width="2" stroke-opacity="1" stroke-miterlimit="10"/><path stroke-linecap="butt" transform="matrix(0.628036, 0, 0, 0.627928, 1.578412, -0.202827)" fill="none" stroke-linejoin="miter" d="M 1846.597151 269.872896 L 1854.626891 269.872896 L 1858.09131 665.059279 L 1848.830053 665.059279 " stroke="rgb(0%, 15.289307%, 24.708557%)" stroke-width="2" stroke-opacity="1" stroke-miterlimit="10"/><path stroke-linecap="butt" transform="matrix(0.628036, 0, 0, 0.627928, 1.578412, -0.202827)" fill="none" stroke-linejoin="miter" d="M 63.180099 284.72209 L 248.168886 307.782819 L 248.168886 534.222141 L 63.180099 632.922314 Z M 63.180099 284.72209 " stroke="rgb(0%, 15.289307%, 24.708557%)" stroke-width="2" stroke-opacity="1" stroke-miterlimit="10"/><path stroke-linecap="butt" transform="matrix(0.628036, 0, 0, 0.627928, 1.578412, -0.202827)" fill="none" stroke-linejoin="miter" d="M 170.539774 298.09694 L 170.539774 575.64063 " stroke="rgb(0%, 15.289307%, 24.708557%)" stroke-width="2" stroke-opacity="1" stroke-miterlimit="10"/><path stroke-linecap="butt" transform="matrix(0.628036, 0, 0, 0.627928, 1.578412, -0.202827)" fill="none" stroke-linejoin="miter" d="M 63.180099 455.248317 L 248.168886 419.347731 " stroke="rgb(0%, 15.289307%, 24.708557%)" stroke-width="2" stroke-opacity="1" stroke-miterlimit="10"/><path stroke-linecap="butt" transform="matrix(0.628036, 0, 0, 0.627928, 1.578412, -0.202827)" fill="none" stroke-linejoin="miter" d="M 1724.50903 301.71748 L 1724.50903 579.261171 " stroke="rgb(0%, 15.289307%, 24.708557%)" stroke-width="2" stroke-opacity="1" stroke-miterlimit="10"/><path stroke-linecap="butt" transform="matrix(0.628036, 0, 0, 0.627928, 1.578412, -0.202827)" fill="none" stroke-linejoin="miter" d="M 1831.881144 458.868858 L 1646.879917 422.968272 " stroke="rgb(0%, 15.289307%, 24.708557%)" stroke-width="2" stroke-opacity="1" stroke-miterlimit="10"/><path stroke-linecap="butt" transform="matrix(0.628036, 0, 0, 0.627928, 1.578412, -0.202827)" fill="none" stroke-linejoin="miter" d="M 1646.879917 311.782833 L 1831.881144 288.722103 L 1831.881144 636.922327 L 1646.879917 538.222155 Z M 1646.879917 311.782833 " stroke="rgb(0%, 15.289307%, 24.708557%)" stroke-width="2" stroke-opacity="1" stroke-miterlimit="10"/><path fill="rgb(98.81897%, 80.778503%, 72.549438%)" d="M 999.011719 91.996094 L 194.53125 479.332031 L 999.011719 479.332031 Z M 999.011719 91.996094 " fill-opacity="1" fill-rule="nonzero"/><path stroke-linecap="butt" transform="matrix(0.628036, 0, 0, 0.627928, 1.578412, -0.202827)" fill="none" stroke-linejoin="miter" d="M 307.231946 146.830496 L 1588.177605 146.830496 L 1588.177605 763.67858 L 307.231946 763.67858 Z M 307.231946 146.830496 " stroke="rgb(0%, 15.289307%, 24.708557%)" stroke-width="2" stroke-opacity="1" stroke-miterlimit="10"/><g clip-path="url(#id15)"><path stroke-linecap="round" transform="matrix(0.628036, 0, 0, 0.627928, 1.578412, -0.202827)" fill="none" stroke-linejoin="miter" d="M 1920.003031 1036.127386 L 1588.177605 727.610031 L 307.231946 727.610031 L -0.000457298 1036.127386 " stroke="rgb(0%, 15.289307%, 24.708557%)" stroke-width="2" stroke-opacity="1" stroke-miterlimit="10"/></g></svg>