<svg xmlns="http://www.w3.org/2000/svg" xmlns:xlink="http://www.w3.org/1999/xlink" width="4000" zoomAndPan="magnify" viewBox="0 0 3000 2999.999989" height="4000" preserveAspectRatio="xMidYMid meet" version="1.0"><defs><clipPath id="id1"><path d="M 2436 654.007812 L 3000 654.007812 L 3000 930 L 2436 930 Z M 2436 654.007812 " clip-rule="nonzero"/></clipPath><clipPath id="id2"><path d="M 0 654.007812 L 526 654.007812 L 526 930 L 0 930 Z M 0 654.007812 " clip-rule="nonzero"/></clipPath><clipPath id="id3"><path d="M 2436 1803 L 3000 1803 L 3000 2346.007812 L 2436 2346.007812 Z M 2436 1803 " clip-rule="nonzero"/></clipPath><clipPath id="id4"><path d="M 2436 654.007812 L 3000 654.007812 L 3000 930 L 2436 930 Z M 2436 654.007812 " clip-rule="nonzero"/></clipPath><clipPath id="id5"><path d="M 0 654.007812 L 526 654.007812 L 526 930 L 0 930 Z M 0 654.007812 " clip-rule="nonzero"/></clipPath><clipPath id="id6"><path d="M 0 1803 L 526 1803 L 526 2346.007812 L 0 2346.007812 Z M 0 1803 " clip-rule="nonzero"/></clipPath><clipPath id="id7"><path d="M 1761 1804 L 1956 1804 L 1956 2346.007812 L 1761 2346.007812 Z M 1761 1804 " clip-rule="nonzero"/></clipPath><clipPath id="id8"><path d="M 2075 1804 L 2457 1804 L 2457 2346.007812 L 2075 2346.007812 Z M 2075 1804 " clip-rule="nonzero"/></clipPath><clipPath id="id9"><path d="M 997 1808 L 1192 1808 L 1192 2346.007812 L 997 2346.007812 Z M 997 1808 " clip-rule="nonzero"/></clipPath><clipPath id="id10"><path d="M 496 1808 L 878 1808 L 878 2346.007812 L 496 2346.007812 Z M 496 1808 " clip-rule="nonzero"/></clipPath></defs><path fill="rgb(92.549133%, 97.24884%, 99.609375%)" d="M 73.851562 1687.464844 L 400.789062 1498.523438 L 400.789062 1122.527344 L 77.332031 1070.679688 Z M 100.324219 1100.097656 L 389.054688 1136.089844 L 389.054688 1489.503906 L 100.324219 1643.53125 Z M 100.324219 1100.097656 " fill-opacity="1" fill-rule="nonzero"/><path fill="rgb(98.81897%, 80.778503%, 72.549438%)" d="M 1.714844 655.726562 L 1.714844 2341.320312 L 2998.285156 2341.320312 L 2998.285156 655.726562 Z M 400.789062 1498.523438 L 73.851562 1687.464844 L 77.332031 1070.679688 L 400.789062 1122.527344 Z M 2560.269531 1504.765625 L 2560.269531 1128.769531 L 2883.726562 1076.921875 L 2887.207031 1693.707031 Z M 2560.269531 1504.765625 " fill-opacity="1" fill-rule="nonzero"/><path fill="rgb(92.549133%, 97.24884%, 99.609375%)" d="M 2560.269531 1128.769531 L 2560.269531 1504.765625 L 2887.207031 1693.707031 L 2883.726562 1076.921875 Z M 2860.753906 1649.789062 L 2572.023438 1495.761719 L 2572.023438 1142.332031 L 2860.753906 1106.34375 Z M 2860.753906 1649.789062 " fill-opacity="1" fill-rule="nonzero"/><g clip-path="url(#id1)"><path stroke-linecap="butt" transform="matrix(1.560712, 0, 0, 1.560733, 1.716788, 655.72759)" fill="none" stroke-linejoin="miter" d="M 1588.178899 146.830375 L 1920.001164 -0.00065852 " stroke="rgb(0%, 15.289307%, 24.708557%)" stroke-width="2" stroke-opacity="1" stroke-miterlimit="10"/></g><g clip-path="url(#id2)"><path stroke-linecap="butt" transform="matrix(1.560712, 0, 0, 1.560733, 1.716788, 655.72759)" fill="none" stroke-linejoin="miter" d="M 307.230375 146.830375 L -0.00124595 -0.00065852 " stroke="rgb(0%, 15.289307%, 24.708557%)" stroke-width="2" stroke-opacity="1" stroke-miterlimit="10"/></g><path fill="rgb(92.549133%, 97.24884%, 99.609375%)" d="M 2480.40625 884.890625 L 481.214844 884.890625 L 1.714844 655.726562 L 2998.285156 655.726562 L 2480.40625 884.890625 " fill-opacity="1" fill-rule="nonzero"/><path fill="rgb(98.81897%, 80.778503%, 72.549438%)" d="M 481.214844 884.890625 L 2480.40625 884.890625 L 2480.40625 1847.628906 L 481.214844 1847.628906 Z M 481.214844 884.890625 " fill-opacity="1" fill-rule="nonzero"/><path fill="rgb(76.078796%, 89.019775%, 96.859741%)" d="M 481.214844 1847.628906 L 2480.40625 1847.628906 L 2998.285156 2341.320312 L 1.714844 2341.320312 L 481.214844 1847.628906 " fill-opacity="1" fill-rule="nonzero"/><g clip-path="url(#id3)"><path stroke-linecap="butt" transform="matrix(1.560712, 0, 0, 1.560733, 1.716788, 655.72759)" fill="none" stroke-linejoin="miter" d="M 1588.178899 763.680398 L 1920.001164 1080.000587 " stroke="rgb(0%, 15.289307%, 24.708557%)" stroke-width="2" stroke-opacity="1" stroke-miterlimit="10"/></g><g clip-path="url(#id4)"><path stroke-linecap="butt" transform="matrix(1.560712, 0, 0, 1.560733, 1.716788, 655.72759)" fill="none" stroke-linejoin="miter" d="M 1588.178899 146.830375 L 1920.001164 -0.00065852 " stroke="rgb(0%, 15.289307%, 24.708557%)" stroke-width="2" stroke-opacity="1" stroke-miterlimit="10"/></g><g clip-path="url(#id5)"><path stroke-linecap="butt" transform="matrix(1.560712, 0, 0, 1.560733, 1.716788, 655.72759)" fill="none" stroke-linejoin="miter" d="M -0.00124595 -0.00065852 L 307.230375 146.830375 " stroke="rgb(0%, 15.289307%, 24.708557%)" stroke-width="2" stroke-opacity="1" stroke-miterlimit="10"/></g><g clip-path="url(#id6)"><path stroke-linecap="round" transform="matrix(1.560712, 0, 0, 1.560733, 1.716788, 655.72759)" fill="none" stroke-linejoin="miter" d="M -0.00124595 1080.000587 L 307.230375 763.680398 " stroke="rgb(0%, 15.289307%, 24.708557%)" stroke-width="2" stroke-opacity="1" stroke-miterlimit="10"/></g><path stroke-linecap="butt" transform="matrix(1.560712, 0, 0, 1.560733, 1.716788, 655.72759)" fill="none" stroke-linejoin="miter" d="M 947.710895 763.680398 L 947.710895 1080.000587 " stroke="rgb(92.549133%, 97.24884%, 99.609375%)" stroke-width="2" stroke-opacity="1" stroke-miterlimit="10"/><g clip-path="url(#id7)"><path stroke-linecap="butt" transform="matrix(1.560712, 0, 0, 1.560733, 1.716788, 655.72759)" fill="none" stroke-linejoin="miter" d="M 1155.969243 764.251043 L 1223.689247 1079.429942 " stroke="rgb(92.549133%, 97.24884%, 99.609375%)" stroke-width="2" stroke-opacity="1" stroke-miterlimit="10"/></g><g clip-path="url(#id8)"><path stroke-linecap="butt" transform="matrix(1.560712, 0, 0, 1.560733, 1.716788, 655.72759)" fill="none" stroke-linejoin="miter" d="M 1357.059387 764.251043 L 1544.609034 1079.429942 " stroke="rgb(92.549133%, 97.24884%, 99.609375%)" stroke-width="2" stroke-opacity="1" stroke-miterlimit="10"/></g><g clip-path="url(#id9)"><path stroke-linecap="butt" transform="matrix(1.560712, 0, 0, 1.560733, 1.716788, 655.72759)" fill="none" stroke-linejoin="miter" d="M 733.901193 767.089253 L 666.181189 1082.270654 " stroke="rgb(92.549133%, 97.24884%, 99.609375%)" stroke-width="2" stroke-opacity="1" stroke-miterlimit="10"/></g><g clip-path="url(#id10)"><path stroke-linecap="butt" transform="matrix(1.560712, 0, 0, 1.560733, 1.716788, 655.72759)" fill="none" stroke-linejoin="miter" d="M 532.811049 767.089253 L 345.248887 1082.270654 " stroke="rgb(92.549133%, 97.24884%, 99.609375%)" stroke-width="2" stroke-opacity="1" stroke-miterlimit="10"/></g><path stroke-linecap="butt" transform="matrix(1.560712, 0, 0, 1.560733, 1.716788, 655.72759)" fill="none" stroke-linejoin="miter" d="M 237.800915 835.158725 L 1663.169725 835.158725 " stroke="rgb(92.549133%, 97.24884%, 99.609375%)" stroke-width="2" stroke-opacity="1" stroke-miterlimit="10"/><path stroke-linecap="butt" transform="matrix(1.560712, 0, 0, 1.560733, 1.716788, 655.72759)" fill="none" stroke-linejoin="miter" d="M 120.268901 956.170563 L 1790.099995 956.170563 " stroke="rgb(92.549133%, 97.24884%, 99.609375%)" stroke-width="2" stroke-opacity="1" stroke-miterlimit="10"/><path stroke-linecap="butt" transform="matrix(1.560712, 0, 0, 1.560733, 1.716788, 655.72759)" fill="none" stroke-linejoin="miter" d="M 46.219153 661.059356 L 255.698899 539.999964 L 255.698899 299.090048 L 48.449205 265.869983 Z M 46.219153 661.059356 " stroke="rgb(0%, 15.289307%, 24.708557%)" stroke-width="2" stroke-opacity="1" stroke-miterlimit="10"/><path stroke-linecap="butt" transform="matrix(1.560712, 0, 0, 1.560733, 1.716788, 655.72759)" fill="none" stroke-linejoin="miter" d="M 48.449205 265.869983 L 40.420015 265.869983 L 36.961057 661.059356 L 46.219153 661.059356 " stroke="rgb(0%, 15.289307%, 24.708557%)" stroke-width="2" stroke-opacity="1" stroke-miterlimit="10"/><path stroke-linecap="butt" transform="matrix(1.560712, 0, 0, 1.560733, 1.716788, 655.72759)" fill="none" stroke-linejoin="miter" d="M 1652.630163 825.119873 L 1807.620046 972.869445 " stroke="rgb(0%, 15.289307%, 24.708557%)" stroke-width="2" stroke-opacity="1" stroke-miterlimit="10"/><path stroke-linecap="butt" transform="matrix(1.560712, 0, 0, 1.560733, 1.716788, 655.72759)" fill="none" stroke-linejoin="miter" d="M 1848.82971 665.058879 L 1639.349964 543.999487 L 1639.349964 303.08957 L 1846.599657 269.869506 Z M 1848.82971 665.058879 " stroke="rgb(0%, 15.289307%, 24.708557%)" stroke-width="2" stroke-opacity="1" stroke-miterlimit="10"/><path stroke-linecap="butt" transform="matrix(1.560712, 0, 0, 1.560733, 1.716788, 655.72759)" fill="none" stroke-linejoin="miter" d="M 1846.599657 269.869506 L 1854.628847 269.869506 L 1858.090308 665.058879 L 1848.82971 665.058879 " stroke="rgb(0%, 15.289307%, 24.708557%)" stroke-width="2" stroke-opacity="1" stroke-miterlimit="10"/><path stroke-linecap="butt" transform="matrix(1.560712, 0, 0, 1.560733, 1.716788, 655.72759)" fill="none" stroke-linejoin="miter" d="M 63.181065 284.718797 L 248.170282 307.779874 L 248.170282 534.22093 L 63.181065 632.920037 Z M 63.181065 284.718797 " stroke="rgb(0%, 15.289307%, 24.708557%)" stroke-width="2" stroke-opacity="1" stroke-miterlimit="10"/><path stroke-linecap="butt" transform="matrix(1.560712, 0, 0, 1.560733, 1.716788, 655.72759)" fill="none" stroke-linejoin="miter" d="M 170.538934 298.098927 L 170.538934 575.640266 " stroke="rgb(0%, 15.289307%, 24.708557%)" stroke-width="2" stroke-opacity="1" stroke-miterlimit="10"/><path stroke-linecap="butt" transform="matrix(1.560712, 0, 0, 1.560733, 1.716788, 655.72759)" fill="none" stroke-linejoin="miter" d="M 63.181065 455.24913 L 248.170282 419.351037 " stroke="rgb(0%, 15.289307%, 24.708557%)" stroke-width="2" stroke-opacity="1" stroke-miterlimit="10"/><path stroke-linecap="butt" transform="matrix(1.560712, 0, 0, 1.560733, 1.716788, 655.72759)" fill="none" stroke-linejoin="miter" d="M 1724.509928 301.720522 L 1724.509928 579.259358 " stroke="rgb(0%, 15.289307%, 24.708557%)" stroke-width="2" stroke-opacity="1" stroke-miterlimit="10"/><path stroke-linecap="butt" transform="matrix(1.560712, 0, 0, 1.560733, 1.716788, 655.72759)" fill="none" stroke-linejoin="miter" d="M 1831.880311 458.870725 L 1646.881083 422.970129 " stroke="rgb(0%, 15.289307%, 24.708557%)" stroke-width="2" stroke-opacity="1" stroke-miterlimit="10"/><path stroke-linecap="butt" transform="matrix(1.560712, 0, 0, 1.560733, 1.716788, 655.72759)" fill="none" stroke-linejoin="miter" d="M 1646.881083 311.779397 L 1831.880311 288.720823 L 1831.880311 636.919559 L 1646.881083 538.220452 Z M 1646.881083 311.779397 " stroke="rgb(0%, 15.289307%, 24.708557%)" stroke-width="2" stroke-opacity="1" stroke-miterlimit="10"/><path fill="rgb(98.81897%, 80.778503%, 72.549438%)" d="M 2480.40625 884.890625 L 481.214844 1847.628906 L 2480.40625 1847.628906 Z M 2480.40625 884.890625 " fill-opacity="1" fill-rule="nonzero"/><path stroke-linecap="butt" transform="matrix(1.560712, 0, 0, 1.560733, 1.716788, 655.72759)" fill="none" stroke-linejoin="miter" d="M 307.230375 146.830375 L 1588.178899 146.830375 L 1588.178899 763.680398 L 307.230375 763.680398 Z M 307.230375 146.830375 " stroke="rgb(0%, 15.289307%, 24.708557%)" stroke-width="2" stroke-opacity="1" stroke-miterlimit="10"/><path stroke-linecap="round" transform="matrix(1.560712, 0, 0, 1.560733, 1.716788, 655.72759)" fill="none" stroke-linejoin="miter" d="M 1920.001164 1036.13098 L 1588.178899 727.60961 L 307.230375 727.60961 L -0.00124595 1036.13098 " stroke="rgb(0%, 15.289307%, 24.708557%)" stroke-width="2" stroke-opacity="1" stroke-miterlimit="10"/></svg>